<mxfile host="app.diagrams.net" agent="Mozilla/5.0 (Windows NT 10.0; Win64; x64) AppleWebKit/537.36 (KHTML, like Gecko) Chrome/140.0.0.0 Safari/537.36" version="28.2.3">
  <diagram name="Trang-1" id="U2GpQeHUhaBZflC6nnnK">
    <mxGraphModel dx="1042" dy="562" grid="1" gridSize="10" guides="1" tooltips="1" connect="1" arrows="1" fold="1" page="1" pageScale="1" pageWidth="827" pageHeight="1169" math="0" shadow="0">
      <root>
        <mxCell id="0" />
        <mxCell id="1" parent="0" />
        <mxCell id="RBuVKCxglMsY3zYDB0A1-16" style="edgeStyle=orthogonalEdgeStyle;rounded=0;orthogonalLoop=1;jettySize=auto;html=1;entryX=0.5;entryY=0;entryDx=0;entryDy=0;" edge="1" parent="1" source="RBuVKCxglMsY3zYDB0A1-1" target="RBuVKCxglMsY3zYDB0A1-3">
          <mxGeometry relative="1" as="geometry" />
        </mxCell>
        <mxCell id="RBuVKCxglMsY3zYDB0A1-1" value="bắt đầu" style="ellipse;whiteSpace=wrap;html=1;" vertex="1" parent="1">
          <mxGeometry x="330" y="20" width="120" height="80" as="geometry" />
        </mxCell>
        <mxCell id="RBuVKCxglMsY3zYDB0A1-18" style="edgeStyle=orthogonalEdgeStyle;rounded=0;orthogonalLoop=1;jettySize=auto;html=1;exitX=0.5;exitY=1;exitDx=0;exitDy=0;entryX=0.5;entryY=0;entryDx=0;entryDy=0;" edge="1" parent="1" source="RBuVKCxglMsY3zYDB0A1-3" target="RBuVKCxglMsY3zYDB0A1-17">
          <mxGeometry relative="1" as="geometry" />
        </mxCell>
        <mxCell id="RBuVKCxglMsY3zYDB0A1-3" value="Nhập món ăn" style="shape=parallelogram;perimeter=parallelogramPerimeter;whiteSpace=wrap;html=1;fixedSize=1;" vertex="1" parent="1">
          <mxGeometry x="330" y="140" width="120" height="60" as="geometry" />
        </mxCell>
        <mxCell id="RBuVKCxglMsY3zYDB0A1-27" style="edgeStyle=orthogonalEdgeStyle;rounded=0;orthogonalLoop=1;jettySize=auto;html=1;" edge="1" parent="1" source="RBuVKCxglMsY3zYDB0A1-5">
          <mxGeometry relative="1" as="geometry">
            <mxPoint x="474" y="630" as="targetPoint" />
          </mxGeometry>
        </mxCell>
        <mxCell id="RBuVKCxglMsY3zYDB0A1-5" value="giao hàng" style="rounded=1;whiteSpace=wrap;html=1;" vertex="1" parent="1">
          <mxGeometry x="414" y="525" width="120" height="60" as="geometry" />
        </mxCell>
        <mxCell id="RBuVKCxglMsY3zYDB0A1-26" style="edgeStyle=orthogonalEdgeStyle;rounded=0;orthogonalLoop=1;jettySize=auto;html=1;" edge="1" parent="1" source="RBuVKCxglMsY3zYDB0A1-13">
          <mxGeometry relative="1" as="geometry">
            <mxPoint x="474" y="530" as="targetPoint" />
          </mxGeometry>
        </mxCell>
        <mxCell id="RBuVKCxglMsY3zYDB0A1-13" value="tạo đơn hàng" style="rounded=1;whiteSpace=wrap;html=1;" vertex="1" parent="1">
          <mxGeometry x="414" y="410" width="120" height="70" as="geometry" />
        </mxCell>
        <mxCell id="RBuVKCxglMsY3zYDB0A1-19" style="edgeStyle=orthogonalEdgeStyle;rounded=0;orthogonalLoop=1;jettySize=auto;html=1;" edge="1" parent="1" source="RBuVKCxglMsY3zYDB0A1-17">
          <mxGeometry relative="1" as="geometry">
            <mxPoint x="260" y="420" as="targetPoint" />
          </mxGeometry>
        </mxCell>
        <mxCell id="RBuVKCxglMsY3zYDB0A1-21" value="không" style="edgeLabel;html=1;align=center;verticalAlign=middle;resizable=0;points=[];" vertex="1" connectable="0" parent="RBuVKCxglMsY3zYDB0A1-19">
          <mxGeometry x="0.4718" y="3" relative="1" as="geometry">
            <mxPoint as="offset" />
          </mxGeometry>
        </mxCell>
        <mxCell id="RBuVKCxglMsY3zYDB0A1-23" style="edgeStyle=orthogonalEdgeStyle;rounded=0;orthogonalLoop=1;jettySize=auto;html=1;" edge="1" parent="1" source="RBuVKCxglMsY3zYDB0A1-17">
          <mxGeometry relative="1" as="geometry">
            <mxPoint x="480" y="410" as="targetPoint" />
          </mxGeometry>
        </mxCell>
        <mxCell id="RBuVKCxglMsY3zYDB0A1-25" value="Có" style="edgeLabel;html=1;align=center;verticalAlign=middle;resizable=0;points=[];" vertex="1" connectable="0" parent="RBuVKCxglMsY3zYDB0A1-23">
          <mxGeometry x="0.395" y="1" relative="1" as="geometry">
            <mxPoint as="offset" />
          </mxGeometry>
        </mxCell>
        <mxCell id="RBuVKCxglMsY3zYDB0A1-17" value="món có còn không?" style="rhombus;whiteSpace=wrap;html=1;" vertex="1" parent="1">
          <mxGeometry x="350" y="240" width="80" height="80" as="geometry" />
        </mxCell>
        <mxCell id="RBuVKCxglMsY3zYDB0A1-22" style="edgeStyle=orthogonalEdgeStyle;rounded=0;orthogonalLoop=1;jettySize=auto;html=1;entryX=0;entryY=0.5;entryDx=0;entryDy=0;" edge="1" parent="1" source="RBuVKCxglMsY3zYDB0A1-20" target="RBuVKCxglMsY3zYDB0A1-3">
          <mxGeometry relative="1" as="geometry">
            <Array as="points">
              <mxPoint x="140" y="450" />
              <mxPoint x="140" y="170" />
            </Array>
          </mxGeometry>
        </mxCell>
        <mxCell id="RBuVKCxglMsY3zYDB0A1-20" value="báo lỗi" style="shape=parallelogram;perimeter=parallelogramPerimeter;whiteSpace=wrap;html=1;fixedSize=1;" vertex="1" parent="1">
          <mxGeometry x="200" y="420" width="120" height="60" as="geometry" />
        </mxCell>
        <mxCell id="RBuVKCxglMsY3zYDB0A1-29" style="edgeStyle=orthogonalEdgeStyle;rounded=0;orthogonalLoop=1;jettySize=auto;html=1;" edge="1" parent="1" source="RBuVKCxglMsY3zYDB0A1-28">
          <mxGeometry relative="1" as="geometry">
            <mxPoint x="340" y="790" as="targetPoint" />
          </mxGeometry>
        </mxCell>
        <mxCell id="RBuVKCxglMsY3zYDB0A1-32" value="có" style="edgeLabel;html=1;align=center;verticalAlign=middle;resizable=0;points=[];" vertex="1" connectable="0" parent="RBuVKCxglMsY3zYDB0A1-29">
          <mxGeometry x="0.4606" y="-4" relative="1" as="geometry">
            <mxPoint as="offset" />
          </mxGeometry>
        </mxCell>
        <mxCell id="RBuVKCxglMsY3zYDB0A1-30" style="edgeStyle=orthogonalEdgeStyle;rounded=0;orthogonalLoop=1;jettySize=auto;html=1;" edge="1" parent="1" source="RBuVKCxglMsY3zYDB0A1-28">
          <mxGeometry relative="1" as="geometry">
            <mxPoint x="620" y="790" as="targetPoint" />
          </mxGeometry>
        </mxCell>
        <mxCell id="RBuVKCxglMsY3zYDB0A1-36" value="Không" style="edgeLabel;html=1;align=center;verticalAlign=middle;resizable=0;points=[];" vertex="1" connectable="0" parent="RBuVKCxglMsY3zYDB0A1-30">
          <mxGeometry x="0.4648" y="2" relative="1" as="geometry">
            <mxPoint as="offset" />
          </mxGeometry>
        </mxCell>
        <mxCell id="RBuVKCxglMsY3zYDB0A1-28" value="Giao thành công" style="rhombus;whiteSpace=wrap;html=1;" vertex="1" parent="1">
          <mxGeometry x="434" y="630" width="80" height="80" as="geometry" />
        </mxCell>
        <mxCell id="RBuVKCxglMsY3zYDB0A1-31" value="báo khách nhận món" style="shape=parallelogram;perimeter=parallelogramPerimeter;whiteSpace=wrap;html=1;fixedSize=1;" vertex="1" parent="1">
          <mxGeometry x="280" y="790" width="120" height="60" as="geometry" />
        </mxCell>
        <mxCell id="RBuVKCxglMsY3zYDB0A1-40" style="edgeStyle=orthogonalEdgeStyle;rounded=0;orthogonalLoop=1;jettySize=auto;html=1;exitX=0.5;exitY=1;exitDx=0;exitDy=0;entryX=1;entryY=0.5;entryDx=0;entryDy=0;" edge="1" parent="1" source="RBuVKCxglMsY3zYDB0A1-35" target="RBuVKCxglMsY3zYDB0A1-39">
          <mxGeometry relative="1" as="geometry" />
        </mxCell>
        <mxCell id="RBuVKCxglMsY3zYDB0A1-35" value="hoàn tiền" style="rounded=1;whiteSpace=wrap;html=1;" vertex="1" parent="1">
          <mxGeometry x="550" y="790" width="120" height="60" as="geometry" />
        </mxCell>
        <mxCell id="RBuVKCxglMsY3zYDB0A1-39" value="kết thúc" style="ellipse;whiteSpace=wrap;html=1;" vertex="1" parent="1">
          <mxGeometry x="414" y="890" width="120" height="80" as="geometry" />
        </mxCell>
        <mxCell id="RBuVKCxglMsY3zYDB0A1-41" style="edgeStyle=orthogonalEdgeStyle;rounded=0;orthogonalLoop=1;jettySize=auto;html=1;entryX=0.02;entryY=0.608;entryDx=0;entryDy=0;entryPerimeter=0;" edge="1" parent="1" source="RBuVKCxglMsY3zYDB0A1-31" target="RBuVKCxglMsY3zYDB0A1-39">
          <mxGeometry relative="1" as="geometry">
            <Array as="points">
              <mxPoint x="330" y="930" />
              <mxPoint x="416" y="930" />
            </Array>
          </mxGeometry>
        </mxCell>
      </root>
    </mxGraphModel>
  </diagram>
</mxfile>
